<svg width="127" height="152" viewBox="0 0 127 152" fill="none" xmlns="http://www.w3.org/2000/svg">
<g clip-path="url(#clip0_3_6)">
<path d="M63.16 121.24C96.6395 121.24 123.78 94.0995 123.78 60.62C123.78 27.1405 96.6395 0 63.16 0C29.6805 0 2.54004 27.1405 2.54004 60.62C2.54004 94.0995 29.6805 121.24 63.16 121.24Z" fill="#FFCE33"/>
<path d="M95.23 63.55C94.1301 53.04 91.75 42.67 88.19 32.73C88.08 31.23 87.86 29.76 87.51 28.35C86.42 23.93 84.17 19.99 81.14 16.86C77.55 13.16 72.87 10.61 67.62 9.81002C67.4501 9.79002 67.28 9.75002 67.11 9.73002C66.89 9.69002 66.68 9.67002 66.46 9.65002C66.05 9.60002 65.64 9.58002 65.23 9.56002C64.91 9.54002 64.57 9.52002 64.25 9.52002H63.98C63.9 9.52002 63.83 9.52002 63.75 9.53002C63.74 9.52002 63.73 9.52002 63.72 9.53002C52.5 9.65002 43.1 17.61 40.44 28.34C40.29 28.94 40.17 29.54 40.07 30.15C34.39 42.13 32.45 55.94 32.67 69.32C33.55 67.02 34.95 64.92 36.74 63.22C35.08 66.81 35.11 71.12 36.78 74.71L36.75 74.95H36.87C36.89 74.99 36.91 75.04 36.93 75.08L36.95 74.95H90.84L90.63 74.43C91.26 74.26 92.06 74.3 92.6 74.04C92.48 72.65 92.37 71.27 92.25 69.88C92.94 70.95 93.69 71.39 94.38 72.46C93.95 68.93 93.37 64.68 92.37 61.27C93.51 61.96 94.65 62.36 95.23 63.55Z" fill="#2E2E2E"/>
<path d="M75.38 88.47C75.6 95.09 70.41 100.57 63.94 100.57C57.6 100.57 52.5 95.31 52.5 88.86C52.5 88.73 52.5 88.6 52.51 88.47L53.77 71L53.93 68.75L54.73 57.89H73.13L73.95 69.15L74.13 71.61L75.38 88.47Z" fill="#F5F5FF" stroke="#2E2E2E" stroke-width="0.5" stroke-miterlimit="10" stroke-linecap="round" stroke-linejoin="round"/>
<path d="M74.7399 79.93C68.9399 80.64 62.4 77.85 57.97 72.19C56.17 69.9 54.92 67.38 54.2 64.83L54.72 57.78H73.12L73.94 69.04L74.1299 71.5L74.7399 79.93Z" fill="#2E2E2E"/>
<path d="M79.54 40.38C77.23 44.09 77.45 48.49 80.04 50.2C82.63 51.91 86.6 50.29 88.91 46.58C91.22 42.87 91 38.47 88.41 36.76C85.82 35.04 81.85 36.66 79.54 40.38Z" fill="#F5F5FF" stroke="#2E2E2E" stroke-width="0.5" stroke-miterlimit="10" stroke-linecap="round" stroke-linejoin="round"/>
<path d="M86.4601 38.54C87.5801 38.98 88.4301 40.04 88.6101 41.23C88.7901 42.42 88.3001 43.69 87.3601 44.44" stroke="#2E2E2E" stroke-width="0.5" stroke-miterlimit="10" stroke-linecap="round" stroke-linejoin="round"/>
<path d="M48.3301 40.38C50.6401 44.09 50.4201 48.49 47.8301 50.2C45.2401 51.91 41.2701 50.29 38.9601 46.58C36.6501 42.87 36.8701 38.47 39.4601 36.76C42.0501 35.04 46.0201 36.66 48.3301 40.38Z" fill="#F5F5FF" stroke="#2E2E2E" stroke-width="0.5" stroke-miterlimit="10" stroke-linecap="round" stroke-linejoin="round"/>
<path d="M41.4101 38.54C40.2901 38.98 39.4401 40.04 39.2601 41.23C39.0801 42.42 39.5701 43.69 40.5101 44.44" stroke="#2E2E2E" stroke-width="0.5" stroke-miterlimit="10" stroke-linecap="round" stroke-linejoin="round"/>
<path d="M85.6601 34.24C85.6601 34.59 85.6601 34.93 85.6401 35.26C85.6001 36.26 85.5201 37.27 85.3901 38.25L85.2501 39.65L85.1901 40.41L85.0901 41.51C85.0301 42.18 84.9901 42.84 84.9401 43.5C84.9201 43.92 84.9001 44.33 84.8701 44.75C84.7801 46.41 84.6901 48.06 84.4701 49.7C84.4701 49.73 84.4501 49.76 84.4501 49.78C84.4101 50.09 84.3601 50.41 84.3001 50.71C84.3001 50.72 84.3001 50.72 84.3001 50.72C84.2401 51.06 84.1801 51.39 84.0901 51.72C83.9901 52.22 83.8601 52.71 83.7001 53.21V53.22C83.6601 53.4 83.6001 53.57 83.5301 53.76C83.4201 54.12 83.2701 54.49 83.1301 54.86C82.7401 55.83 82.2701 56.77 81.7301 57.71C79.5001 61.61 76.0701 65.19 72.6401 67.56C72.6201 67.59 72.6001 67.6 72.5901 67.6C72.1701 67.9 71.7501 68.17 71.3401 68.42C67.1501 70.98 62.2001 71.12 57.8601 68.91C56.9601 68.46 56.0901 67.94 55.2501 67.32C55.2401 67.32 55.2301 67.32 55.2201 67.3C51.9001 64.93 49.0401 61.49 46.9001 57.71C46.7401 57.44 46.6001 57.18 46.4501 56.91C46.3801 56.77 46.3101 56.62 46.2401 56.48C46.1201 56.25 46.0001 56 45.8801 55.75C45.5401 55.1 45.2401 54.42 44.9601 53.76C44.8901 53.57 44.8101 53.39 44.7501 53.2C43.7401 50.54 43.3801 47.57 43.1401 44.64C43.1001 44.19 43.0601 43.72 43.0301 43.27C42.9901 42.76 42.9501 42.24 42.9101 41.74L42.7901 40.37C42.7601 40.22 42.7401 40.07 42.7201 39.93C42.6801 39.76 42.6601 39.6 42.6401 39.43C42.5301 38.81 42.4501 38.18 42.3801 37.53C42.2801 36.47 42.2201 35.37 42.2201 34.24C42.2201 34.15 42.2201 34.05 42.2301 33.95C42.2301 33.43 42.2501 32.92 42.2801 32.41C42.2901 32.23 42.3001 32.05 42.3101 31.87C42.3601 31.28 42.4301 30.7 42.5201 30.14C43.0201 26.67 44.1301 23.44 45.7301 20.61C46.1301 19.9 46.5601 19.22 47.0301 18.56C48.5701 16.35 50.4601 14.45 52.5701 12.96C52.7201 12.84 52.8801 12.73 53.0301 12.63C53.2201 12.5 53.4101 12.37 53.6001 12.25C54.3501 11.79 55.1201 11.37 55.9101 11.01C58.2201 9.94999 60.7301 9.33999 63.3701 9.26999C63.3801 9.24999 63.3901 9.24999 63.4001 9.26999V9.24999C63.5301 9.23999 63.6701 9.23999 63.8001 9.23999H63.9301C64.2601 9.23999 64.6201 9.24999 64.9501 9.27999C65.3901 9.29999 65.8101 9.32999 66.2401 9.38999C66.4701 9.40999 66.7001 9.43999 66.9201 9.47999C67.1001 9.49999 67.2801 9.53999 67.4601 9.56999C68.9601 9.85999 70.4001 10.31 71.7801 10.94C72.8401 11.4 73.8701 11.97 74.8401 12.63C74.8901 12.66 74.9401 12.7 74.9901 12.73C75.6101 13.15 76.2001 13.59 76.7701 14.08C78.9201 15.89 80.7601 18.14 82.2101 20.72V20.73C82.3101 20.88 82.3801 21.03 82.4701 21.18C82.4801 21.18 82.4801 21.2 82.4801 21.2C83.8801 23.87 84.8901 26.86 85.3501 30.07C85.3501 30.09 85.3601 30.11 85.3601 30.14C85.4501 30.7 85.5101 31.28 85.5601 31.87C85.5701 31.97 85.5801 32.07 85.5801 32.17C85.6301 32.75 85.6501 33.35 85.6501 33.95C85.6601 34.05 85.6601 34.15 85.6601 34.24Z" fill="#F5F5FF" stroke="#2E2E2E" stroke-width="0.5" stroke-miterlimit="10" stroke-linecap="round" stroke-linejoin="round"/>
<path d="M52.63 12.96C51.1 22.38 47.8 31.5 42.95 39.63C42.9 39.72 42.84 39.82 42.77 39.93C42.73 39.77 42.71 39.6 42.69 39.44C42.58 38.81 42.5 38.19 42.44 37.53C42.33 36.48 42.27 35.37 42.27 34.24C42.27 34.15 42.27 34.05 42.28 33.95C42.28 32.65 42.37 31.37 42.57 30.13C43.19 25.79 44.77 21.83 47.07 18.55C48.63 16.35 50.52 14.45 52.63 12.96Z" fill="#2E2E2E"/>
<path d="M85.72 34.24C85.72 34.59 85.72 34.93 85.7 35.26C85.66 36.26 85.58 37.27 85.45 38.25L85.31 39.66L85.24 40.42C85.06 40.13 84.9 39.87 84.76 39.63C79.88 31.43 76.55 22.24 75.04 12.74C75.65 13.15 76.25 13.6 76.82 14.09C79.1 16.01 81.03 18.42 82.51 21.19C82.52 21.19 82.52 21.2 82.52 21.2C83.92 23.87 84.93 26.87 85.4 30.08C85.4 30.1 85.41 30.12 85.41 30.15C85.59 31.39 85.69 32.66 85.69 33.97C85.72 34.05 85.72 34.15 85.72 34.24Z" fill="#2E2E2E"/>
<path d="M85.6401 32.17C85.0401 32.76 84.3301 33.21 83.4901 33.41C81.1301 33.99 78.6801 32.34 77.5401 30.19C76.3901 28.05 76.7501 25.1 76.6301 22.67C76.1101 26.57 73.4901 29.82 70.2001 31.99C72.7001 29.43 73.5301 25.15 72.9601 21.62C72.7901 22.4 72.4701 23.22 72.0601 24.05C69.5101 29.1 64.2101 32.17 58.5501 32.14C55.7501 32.13 53.0201 32.11 52.2401 32.11C55.3301 30.54 57.0801 27.25 58.6401 24.15C55.1301 28.24 50.5101 31.34 45.4101 33.06C44.3501 33.42 43.1501 33.21 42.3501 32.42L42.3401 32.41C42.3401 32.4 42.3301 32.39 42.3301 32.39C42.3801 31.62 42.4601 30.87 42.5801 30.14C43.0801 26.67 44.1901 23.44 45.7901 20.61C46.1901 19.9 46.6201 19.22 47.0901 18.56C48.6301 16.35 50.5201 14.45 52.6301 12.96C52.7801 12.84 52.9401 12.73 53.0901 12.63C53.2801 12.5 53.4701 12.37 53.6601 12.25C54.4101 11.79 55.1801 11.37 55.9701 11.01C58.2801 9.94999 60.7901 9.33999 63.4301 9.26999C63.4401 9.24999 63.4501 9.24999 63.4601 9.26999V9.24999C63.5901 9.23999 63.7301 9.23999 63.8601 9.23999H63.9901C64.3201 9.23999 64.6801 9.24999 65.0101 9.27999C65.4501 9.29999 65.8701 9.32999 66.3001 9.38999C66.5301 9.40999 66.7601 9.43999 66.9801 9.47999C67.1601 9.49999 67.3401 9.53999 67.5201 9.56999C69.0201 9.85999 70.4601 10.31 71.8401 10.94C72.9001 11.4 73.9301 11.97 74.9001 12.63C74.9501 12.66 75.0001 12.7 75.0501 12.73C75.6701 13.15 76.2601 13.59 76.8301 14.08C78.9801 15.89 80.8201 18.14 82.2701 20.72V20.73C82.3701 20.88 82.4401 21.03 82.5301 21.18C82.5401 21.18 82.5401 21.2 82.5401 21.2C83.9401 23.87 84.9501 26.86 85.4101 30.07C85.4101 30.09 85.4201 30.11 85.4201 30.14C85.5201 30.79 85.5901 31.47 85.6401 32.16V32.17Z" fill="#2E2E2E"/>
<path d="M79.48 26.92C82.87 31.3 84.8 36.8 84.88 42.35C84.96 47.89 83.2 53.45 79.94 57.94C84.15 53.95 86.87 49.48 87.46 43.71C88.05 37.94 86.52 31.98 83.22 27.22C82.8 26.61 82.3 25.98 81.59 25.74C80.9 25.51 79.6 26.19 79.48 26.92Z" fill="#2E2E2E"/>
<path d="M68.3201 36.86C69.0001 35.94 69.9901 35.41 70.9601 35.03C71.9501 34.67 72.9801 34.5 74.0101 34.47C75.0401 34.45 76.0601 34.58 77.0501 34.87C78.0401 35.18 79.0201 35.61 79.8501 36.39C78.7801 36.69 77.8201 36.82 76.8701 36.94C75.9201 37.04 74.9901 37.09 74.0701 37.11C73.1501 37.13 72.2301 37.11 71.2901 37.07C70.3501 37.02 69.4201 36.96 68.3201 36.86Z" fill="#2E2E2E"/>
<path d="M59.55 36.86C58.87 35.94 57.88 35.41 56.91 35.03C55.92 34.67 54.89 34.5 53.86 34.47C52.83 34.45 51.81 34.58 50.82 34.87C49.83 35.18 48.85 35.61 48.02 36.39C49.09 36.69 50.05 36.82 51 36.94C51.95 37.04 52.88 37.09 53.8 37.11C54.72 37.13 55.64 37.11 56.58 37.07C57.53 37.02 58.45 36.96 59.55 36.86Z" fill="#2E2E2E"/>
<path d="M67.99 45.0301C68.52 44.2401 69.05 43.4401 69.76 42.7201C70.44 41.9901 71.3 41.3901 72.29 41.0301C73.28 40.6601 74.41 40.6301 75.43 40.9301C76.47 41.2001 77.35 41.8001 78.1 42.5001L78.04 42.4501C78.46 42.7801 78.89 43.1001 79.31 43.4401L79.02 43.3501C79 43.3801 79.16 43.3601 79.28 43.3201C79.41 43.2801 79.55 43.2201 79.69 43.1501C79.97 43.0101 80.25 42.8501 80.5 42.6701L80.51 42.6601C80.61 42.5901 80.75 42.6101 80.82 42.7101C80.88 42.7901 80.87 42.9001 80.81 42.9701C80.59 43.2501 80.36 43.4901 80.1 43.7301C79.97 43.8501 79.83 43.9601 79.68 44.0701C79.51 44.1701 79.37 44.3001 79.02 44.3401C78.94 44.3501 78.86 44.3301 78.79 44.2901L78.73 44.2501C78.27 43.9701 77.83 43.6701 77.38 43.3801L77.35 43.3601L77.32 43.3401C76.66 42.7601 75.9 42.3201 75.1 42.0801C74.29 41.8201 73.45 41.8601 72.63 42.0801C71.81 42.3101 71.05 42.7901 70.35 43.3601C69.66 43.9301 69.02 44.6501 68.33 45.3101C68.24 45.3901 68.1 45.3901 68.02 45.3101C67.94 45.2301 67.93 45.1101 67.99 45.0301Z" fill="#2E2E2E"/>
<path d="M71.79 43.1801C71.86 42.1701 72.74 41.4101 73.76 41.4801C74.77 41.5501 75.53 42.4301 75.46 43.4501C75.39 44.4601 74.51 45.2201 73.49 45.1501C72.48 45.0701 71.72 44.1901 71.79 43.1801Z" fill="#2E2E2E"/>
<path d="M77.2 44.8801C77.88 44.7301 78.52 44.4201 79.06 43.9901" stroke="#2E2E2E" stroke-width="0.5" stroke-miterlimit="10" stroke-linecap="round" stroke-linejoin="round"/>
<path d="M68.1799 42.87C69.0399 41.36 70.5299 40.22 72.2199 39.8" stroke="#2E2E2E" stroke-width="0.5" stroke-miterlimit="10" stroke-linecap="round" stroke-linejoin="round"/>
<path d="M59.55 45.31C58.86 44.65 58.22 43.93 57.53 43.36C56.83 42.79 56.07 42.31 55.25 42.08C54.44 41.86 53.59 41.82 52.78 42.08C51.98 42.32 51.21 42.76 50.56 43.34L50.53 43.36L50.5 43.38C50.05 43.67 49.61 43.97 49.15 44.25L49.09 44.29C49.02 44.33 48.94 44.35 48.86 44.34C48.51 44.29 48.37 44.17 48.2 44.07C48.04 43.96 47.91 43.85 47.78 43.73C47.52 43.49 47.29 43.25 47.07 42.97C47 42.87 47.01 42.74 47.11 42.66C47.19 42.6 47.29 42.6 47.37 42.65L47.38 42.66C47.63 42.84 47.91 43 48.19 43.14C48.33 43.21 48.47 43.27 48.6 43.31C48.72 43.35 48.88 43.37 48.86 43.34L48.57 43.43C48.98 43.09 49.41 42.77 49.84 42.44L49.78 42.49C50.53 41.8 51.42 41.19 52.45 40.92C53.47 40.62 54.6 40.65 55.59 41.02C56.58 41.38 57.44 41.99 58.12 42.71C58.83 43.43 59.35 44.23 59.89 45.02C59.96 45.12 59.93 45.26 59.83 45.32C59.74 45.39 59.62 45.38 59.55 45.31Z" fill="#2E2E2E"/>
<path d="M56.08 43.1801C56.01 42.1701 55.13 41.4101 54.11 41.4801C53.1 41.5501 52.33 42.4301 52.41 43.4501C52.48 44.4601 53.36 45.2201 54.38 45.1501C55.39 45.0701 56.15 44.1901 56.08 43.1801Z" fill="#2E2E2E"/>
<path d="M50.6701 44.88C49.9901 44.73 49.3501 44.42 48.8101 43.99" stroke="#2E2E2E" stroke-width="0.5" stroke-miterlimit="10" stroke-linecap="round" stroke-linejoin="round"/>
<path d="M59.69 42.87C58.83 41.36 57.34 40.22 55.65 39.8" stroke="#2E2E2E" stroke-width="0.5" stroke-miterlimit="10" stroke-linecap="round" stroke-linejoin="round"/>
<path d="M64.07 61.4C64.97 61.36 65.86 61.25 66.77 61.13C66.98 61.1 69.85 60.77 69.83 60.59L69.75 59.98C69.07 60.02 68.41 59.6 67.91 59.21L67.69 59.03C67.16 58.6 66.61 58.15 65.92 57.94C65.25 57.74 64.35 57.84 63.85 58.39C63.34 57.84 62.45 57.73 61.77 57.94C61.09 58.16 60.54 58.6 60 59.03L59.78 59.21C59.28 59.59 58.62 60.01 57.94 59.98L57.86 60.59C59.02 61.03 60.49 61.16 61.71 61.32C62.5 61.42 63.28 61.43 64.07 61.4Z" fill="#2E2E2E"/>
<path d="M68.85 60.52C69.51 60.39 70.16 60.19 70.78 59.92" stroke="#2E2E2E" stroke-width="0.5778" stroke-miterlimit="10" stroke-linecap="round" stroke-linejoin="round"/>
<path d="M59.03 60.52C58.37 60.39 57.72 60.19 57.1 59.92" stroke="#2E2E2E" stroke-width="0.5778" stroke-miterlimit="10" stroke-linecap="round" stroke-linejoin="round"/>
<path d="M60.5699 63.0601C62.7399 63.5701 65.0199 63.6301 67.2099 63.2201" stroke="#2E2E2E" stroke-width="0.5" stroke-miterlimit="10" stroke-linecap="round" stroke-linejoin="round"/>
<path d="M61.5901 53.26C62.8401 54.41 64.9301 54.51 66.2901 53.48" stroke="#2E2E2E" stroke-width="0.6139" stroke-miterlimit="10" stroke-linecap="round" stroke-linejoin="round"/>
<path d="M63.9401 42.8201V50.4101" stroke="#2E2E2E" stroke-width="0.5" stroke-miterlimit="10" stroke-linecap="round" stroke-linejoin="round"/>
<path d="M19.29 125.08C27.41 128.74 34.83 129.87 35.85 127.6C36.87 125.33 31.12 120.52 23 116.85C14.88 113.19 7.45997 112.06 6.43997 114.33C5.41997 116.6 11.17 121.41 19.29 125.08Z" fill="#2E2E2E"/>
<path d="M0 151.53C0.03 151.43 0.07 151.34 0.1 151.24L10.92 120.33L13.28 113.59L18.04 99.9899C19.55 95.6599 22.76 92.4999 26.43 91.2099C27.62 90.7899 28.86 90.5699 30.1 90.5699C31.24 90.5699 32.38 90.7599 33.5 91.1499C39.88 93.3899 42.74 101.39 39.73 108.58L33.53 123.34L31.28 128.69L29.45 133.05L21.68 151.53" fill="#F5F5FF"/>
<path d="M0 151.53C0.03 151.43 0.07 151.34 0.1 151.24L10.92 120.33L13.28 113.59L18.04 99.9899C19.55 95.6599 22.76 92.4999 26.43 91.2099C27.62 90.7899 28.86 90.5699 30.1 90.5699C31.24 90.5699 32.38 90.7599 33.5 91.1499C39.88 93.3899 42.74 101.39 39.73 108.58L33.53 123.34L31.28 128.69L29.45 133.05L21.68 151.53" stroke="#2E2E2E" stroke-width="0.5" stroke-miterlimit="10" stroke-linecap="round" stroke-linejoin="round"/>
<path d="M6.60999 114.05C8.10999 112.15 15.23 113.35 22.99 116.84C31.11 120.51 36.87 125.32 35.84 127.6C35.82 127.65 35.79 127.69 35.75 127.74L35.84 127.78L44.81 106.75C48.33 98.49 44.53 89.08 36.53 86.28C35.02 85.75 33.48 85.49 31.94 85.49C26.46 85.49 21.21 88.74 18.51 94.01L6.60999 114.05Z" fill="#2E2E2E"/>
<path d="M107.03 125.08C98.91 128.74 91.49 129.87 90.47 127.6C89.45 125.33 95.2 120.52 103.32 116.85C111.44 113.19 118.86 112.06 119.88 114.33C120.9 116.6 115.15 121.41 107.03 125.08Z" fill="#2E2E2E"/>
<path d="M104.64 151.53L96.3999 131.94L95.0399 128.69L92.7899 123.34L91.2999 119.8L88.7699 113.76L86.5899 108.58C83.5699 101.39 86.4399 93.3899 92.8199 91.1499C93.9299 90.7599 95.0799 90.5699 96.2099 90.5699C97.2199 90.5699 98.2199 90.7199 99.1999 90.9999C103.15 92.1099 106.67 95.3999 108.28 99.9899L113.04 113.59L115.4 120.33L126.22 151.24C126.25 151.34 126.29 151.43 126.32 151.53" fill="#F5F5FF"/>
<path d="M104.64 151.53L96.3999 131.94L95.0399 128.69L92.7899 123.34L91.2999 119.8L88.7699 113.76L86.5899 108.58C83.5699 101.39 86.4399 93.3899 92.8199 91.1499C93.9299 90.7599 95.0799 90.5699 96.2099 90.5699C97.2199 90.5699 98.2199 90.7199 99.1999 90.9999C103.15 92.1099 106.67 95.3999 108.28 99.9899L113.04 113.59L115.4 120.33L126.22 151.24C126.25 151.34 126.29 151.43 126.32 151.53" stroke="#2E2E2E" stroke-width="0.5" stroke-miterlimit="10" stroke-linecap="round" stroke-linejoin="round"/>
<path d="M119.7 114.05C118.2 112.15 111.08 113.35 103.32 116.84C95.1999 120.51 89.4399 125.32 90.4699 127.6C90.4899 127.65 90.5199 127.69 90.5599 127.74L90.4699 127.78L81.4999 106.75C77.9799 98.49 81.7799 89.08 89.7799 86.28C91.2899 85.75 92.8299 85.49 94.3699 85.49C99.8499 85.49 105.1 88.74 107.8 94.01L119.7 114.05Z" fill="#2E2E2E"/>
<path d="M99.8 103.81L97.24 116.05C97.75 117.17 98.15 118.35 98.42 119.58C98.7 120.86 98.85 122.18 98.85 123.54C98.85 125.16 98.64 126.74 98.23 128.24C97.89 129.54 97.41 130.78 96.8 131.94C95.8 133.86 94.4799 135.59 92.89 137.04L89.88 151.53H35.71L32.7 136.63C31.61 135.57 30.65 134.36 29.85 133.05C28.9 131.49 28.17 129.78 27.72 127.96C27.37 126.55 27.18 125.07 27.18 123.54C27.18 121.99 27.38 120.48 27.74 119.04C27.97 118.13 28.26 117.25 28.61 116.4L26.07 103.81C24.98 99.1699 25.19 94.6299 26.83 91.2099C28.18 88.3699 30.52 86.3099 33.92 85.5799C34.78 85.3999 35.72 85.2999 36.73 85.2999H90.47C91.47 85.2999 92.39 85.3999 93.23 85.5799C96.45 86.2799 98.5 88.2699 99.6 90.9999C101.01 94.4499 100.91 99.0799 99.8 103.81Z" fill="#2E2E2E"/>
<path d="M99.7999 103.81C99.4199 105.86 99.0799 107.92 98.6699 109.96C98.2799 112.01 97.8899 114.05 97.4599 116.09L97.4499 115.95C98.2499 117.71 98.7799 119.59 98.9899 121.52C99.1899 123.45 99.0799 125.4 98.6799 127.29C98.2899 129.18 97.5399 130.99 96.5699 132.65C95.5899 134.31 94.3199 135.78 92.8899 137.04C94.2599 135.71 95.4099 134.17 96.3199 132.51C97.2399 130.85 97.8699 129.05 98.2499 127.2C98.9899 123.5 98.5599 119.58 97.0299 116.13C97.0099 116.09 97.0099 116.04 97.0199 115.99C97.4499 113.95 97.9099 111.92 98.3699 109.88C98.8199 107.86 99.3199 105.84 99.7999 103.81Z" fill="white"/>
<path d="M32.7 136.63C31.37 135.38 30.19 133.95 29.29 132.34C28.39 130.74 27.71 129 27.34 127.19C26.97 125.38 26.86 123.51 27.04 121.67C27.21 119.83 27.69 118.02 28.41 116.31L28.4 116.44C27.56 112.24 26.8 108.02 26.08 103.8C27.05 107.97 27.99 112.16 28.84 116.35C28.85 116.4 28.84 116.44 28.83 116.48C27.46 119.82 27.07 123.55 27.76 127.09C28.11 128.86 28.69 130.59 29.54 132.19C30.38 133.81 31.43 135.32 32.7 136.63Z" fill="white"/>
<path d="M76.5299 80.8199H49.5199V89.0399H76.5299V80.8199Z" fill="#2E2E2E"/>
<path d="M76.9599 85.0499C77.0399 86.0699 77.0899 87.1099 77.0899 88.1699C77.0899 100.8 70.8499 111.05 63.1399 111.05C55.4299 111.05 49.1899 100.81 49.1899 88.1699C49.1899 87.2699 49.2199 86.3799 49.2799 85.4999" stroke="white" stroke-width="0.5" stroke-miterlimit="10" stroke-linecap="round" stroke-linejoin="round"/>
</g>
<defs>
<clipPath id="clip0_3_6">
<rect width="126.82" height="151.78" fill="white"/>
</clipPath>
</defs>
</svg>
